<svg width="846" height="793" viewBox="0 0 846 793" fill="none" xmlns="http://www.w3.org/2000/svg">
<circle cx="571" cy="518" r="275" fill="#D50B0B"/>
<rect x="754.186" y="81.4223" width="473" height="25.2918" transform="rotate(90.9568 754.186 81.4223)" fill="white"/>
<rect y="455.809" width="407" height="19.732" transform="rotate(-67.059 0 455.809)" fill="#D40B0B"/>
<rect x="254" y="703.651" width="480" height="40" transform="rotate(-13.3278 254 703.651)" fill="black"/>
<path d="M507.425 362.221L574.432 82.178L750.106 207.236L507.425 362.221Z" fill="black"/>
<g clip-path="url(#clip0_38_8)">
<rect width="618.532" height="119" transform="translate(116.294 227.983) rotate(23)" fill="black"/>
<path d="M124.281 264.279L168.707 282.454L163.255 295.782L134.711 284.105L130.531 294.323L159.074 306L143.716 343.54L99.2903 325.365L104.743 312.037L133.287 323.715L137.739 312.83L109.196 301.153L117.92 279.828L124.281 264.279ZM176.568 285.67L222.104 304.3L197.113 365.385L151.577 346.756L176.568 285.67ZM186.088 307.717L173.82 337.704L187.592 343.339L199.861 313.351L186.088 307.717ZM209.372 370.401L222.004 322.41L226.255 305.998L242.693 312.723L229.283 360.395L233.726 362.213L257.575 318.812L274.013 325.536L240.914 383.305L209.372 370.401ZM278.088 327.203L293.97 333.701L268.979 394.787L253.097 388.289L271.726 342.752L278.088 327.203ZM302.166 337.054L344.593 354.412L338.686 368.85L312.142 357.99L308.507 366.875L321.723 372.283L315.816 386.721L302.6 381.314L298.965 390.199L325.509 401.059L319.602 415.497L277.175 398.14L295.805 352.603L302.166 337.054ZM347.745 355.701L392.949 374.194L386.587 389.744L371.927 383.746L353.297 429.282L337.415 422.785L356.045 377.248L341.384 371.25L347.745 355.701ZM423.535 386.708L468.738 405.201L462.377 420.75L433.056 408.754L420.333 439.852L433.772 445.35L439.588 431.134L455.47 437.632L443.747 466.287L398.544 447.793L423.535 386.708ZM476.681 408.45L492.563 414.948L467.573 476.034L451.69 469.536L470.32 423.999L476.681 408.45ZM500.76 418.301L545.963 436.794L528.878 478.555L520.326 475.056L523.304 498.834L505.534 491.564L503.768 469.578L499.103 467.67L491.651 485.884L475.769 479.387L494.398 433.85L500.76 418.301ZM510.735 439.237L505.01 453.231L518.449 458.729L524.174 444.735L510.735 439.237ZM529.674 501.44L548.304 455.904L554.665 440.355L570.547 446.852L551.463 493.499L578.674 504.632L572.767 519.07L529.674 501.44ZM602.597 459.964L647.023 478.139L641.571 491.467L613.027 479.79L608.847 490.008L637.39 501.685L622.032 539.225L577.606 521.05L583.059 507.722L611.603 519.4L616.056 508.515L587.512 496.838L596.236 475.513L602.597 459.964Z" fill="white"/>
</g>
<defs>
<clipPath id="clip0_38_8">
<rect width="618.532" height="119" fill="white" transform="translate(116.294 227.983) rotate(23)"/>
</clipPath>
</defs>
</svg>
