<svg width="36" height="36" viewBox="0 0 36 36" fill="none" xmlns="http://www.w3.org/2000/svg">
<path fill-rule="evenodd" clip-rule="evenodd" d="M2.5306 2.5306C2.68221e-07 5.06119 0 9.13413 0 17.28V18.72C0 26.8659 2.68221e-07 30.9388 2.5306 33.4694C5.06119 36 9.13413 36 17.28 36H18.72C26.8659 36 30.9388 36 33.4694 33.4694C36 30.9388 36 26.8659 36 18.72V17.28C36 9.13413 36 5.06119 33.4694 2.5306C30.9388 0 26.8659 0 18.72 0H17.28C9.13413 0 5.06119 0 2.5306 2.5306ZM6.07506 11.25C6.27055 20.6662 10.9622 26.325 19.1877 26.325H19.6539V20.9378C22.6765 21.2396 24.962 23.4579 25.8793 26.325H30.1501C28.9771 22.0394 25.8943 19.6702 23.9695 18.7648C25.8943 17.6482 28.6011 14.932 29.2477 11.25H25.3679C24.5258 14.2378 22.0299 16.954 19.6539 17.2106V11.25H15.7742V21.6923C13.3682 21.0887 10.3307 18.1613 10.1953 11.25H6.07506Z" fill="#99A2AD"/>
</svg>
